<svg
  viewBox="0 0 75.002 65.685"
  xmlns="http://www.w3.org/2000/svg"
>
  <path
    d="M11 .17h8.7a3.43 3.43 0 0 1 3.42 1.93c3.51 6.1 7.11 12.15 10.7 18.21a3.14 3.14 0 0 1 .08 3.5c-3 5.22-6 10.47-9.12 15.68-.39.68-.67 1.68-1.68 1.64S22 40 21.57 39.33Q11.69 22.22 1.81 5.1C1 3.76-.48 2.22.15.9.88-.64 3 .28 4.5.2 6.65.08 8.81.17 11 .17"
    fill="#007d9c"
  />
  <path
    d="M71.37.15h1.16c2.8 0 3 .44 1.69 2.78l-14.53 25.2Q49.4 46 39.1 63.9c-1.41 2.43-1.9 2.3-3.56.09-2-2.63-1.71-4.78 0-7.6Q51.27 29.63 66.65 2.62C67.91.43 69.53-.15 71.37.15M56.42.16h1.15c2.8 0 3 .43 1.69 2.77L52.3 15 31.7 50.76c-1.53 2.65-2.06 2.54-3.75-.09a5.9 5.9 0 0 1-.16-7q12-20.07 23.53-40.39C52.63 1 54.07-.44 56.42.16"
    fill="#00add8"
  />
</svg>
